<svg xmlns="http://www.w3.org/2000/svg" viewBox="0 0 1787.59 1332.87"><defs><style>.cls-1{fill:#211b43;stroke:#211b43;stroke-miterlimit:10;}</style></defs><title>AU10TIX Logo BLUE</title><g id="Layer_2" data-name="Layer 2"><g id="Layer_1-2" data-name="Layer 1"><g id="Artwork_6" data-name="Artwork 6"><path class="cls-1" d="M909,778.52c-5.92-2.49-23.43-10.25-47.43-24.45,29.3-11.72,97.09-43,163.72-103.26,116-104.94,173.53-243.81,171-412.76V93.8c13.74,2,27.67,3.64,41.46,4.91V237.57c1.47,99.93-17.41,191.65-56.12,272.63-31,65-74.79,123.06-130,172.67A615.36,615.36,0,0,1,909,778.52Zm-85-48.79c-13-9.16-25.71-19-37.93-29.23,22.81-8.46,108.26-43.59,187.47-120.86C1079.67,476.1,1132.28,342.32,1129.9,182V81.4c13.73,3.15,27.65,6,41.45,8.41v91.72c2.28,155.25-44.06,288.08-137.72,394.82C957.89,662.66,870.16,709.37,824,729.73Zm-68.16-56.42c-5.07-4.89-10.08-9.9-14.91-14.92l-.42-1.32-.67.19c-4.94-5.16-9.89-10.53-14.72-16C754.27,629.7,824,597.8,893,535.2,1008.63,430.26,1066,292.57,1063.52,126V63.26c13.67,4.35,27.6,8.38,41.46,12v50.2c1.44,98.11-17.17,188.42-55.32,268.45-30.7,64.42-74,122.28-128.78,172A630,630,0,0,1,755.83,673.31Zm-55.7-62.17c-8.55-11.09-16.77-22.61-24.48-34.29a586.41,586.41,0,0,0,151-99.22c115.6-104.95,173-242.13,170.51-407.71V39.09c13.64,5.61,27.57,10.93,41.46,15.83V69.44c1.44,97.52-17.17,187.4-55.28,267.15-30.71,64.24-74,122-128.8,171.73A635.15,635.15,0,0,1,700.13,611.14Zm-44.92-67.81c-6.79-12.05-13.19-24.46-19.06-36.94,31.57-16.51,78.2-44.66,124-86.19,115.68-105,173.08-241.67,170.64-406.32V8.48c14.44,7.36,27.73,13.74,41.5,19.91-.62,91.23-19.24,175.67-55.37,251C886.19,343.45,842.81,401.16,788,450.9A634.05,634.05,0,0,1,655.21,543.33ZM620,468.48c-5-13.08-9.69-26.53-13.82-40.06a598.61,598.61,0,0,0,87.42-65.58C793.6,272.13,850.3,157.56,862.1,22.3c18.19-8.52,32.42-15.93,43-21.45-4,79.84-22.32,154.3-54.61,221.39-30.76,63.91-74.19,121.54-129.09,171.31A639.64,639.64,0,0,1,620,468.48Zm-25.51-84.05c-3.35-14.76-6.23-29.89-8.56-45,14.31-10.78,28.11-22.17,41-33.87C703.85,235.86,755.5,151.79,780.42,55.64,796,50.19,811.66,44.21,827,37.85A547.9,547.9,0,0,1,784,165.16c-30.8,63.75-74.3,121.32-129.29,171.1A634.1,634.1,0,0,1,594.44,384.43Zm-14.64-98.1c-1.36-17.81-2.1-36.12-2.18-54.5,45.2-44.37,80.93-94.42,106.22-148.77,16.74-3.68,33.63-8,50.24-12.7-5.06,12.89-10.61,25.58-16.53,37.78C686.69,171.74,643.11,229.24,588,279,585.36,281.45,582.65,283.85,579.8,286.33Zm-2.21-187.1c16.85-1.44,33.88-3.43,50.72-5.94a552.16,552.16,0,0,1-50.72,70.56Z"/></g><path class="cls-1" d="M68.29,1171h32l67.53,158.7H131.54l-14.41-35.34H50.5l-14.4,35.34H.76Zm36.46,92.74-20.93-51.1-20.94,51.1Z"/><path class="cls-1" d="M319,1262.14v-90H353.7v89.14c0,25.66,12.83,38.94,34,38.94s34-12.83,34-37.82V1172.1h34.67V1261c0,47.72-26.79,71.13-69.11,71.13S319,1308.51,319,1262.14Z"/><path class="cls-1" d="M647.9,1206.09l-27.46,6.75-7.21-28.36L658.48,1171h23.63v158.7H647.9Z"/><path class="cls-1" d="M850,1251.33v-.45c0-45.69,28.36-81.48,70.23-81.48,41.65,0,69.78,35.34,69.78,81v.45c0,45.7-28.13,81.49-70.23,81.49S850,1297,850,1251.33Zm104.45,0v-.45c0-28.59-14-50.2-34.67-50.2s-34.21,20.94-34.21,49.75v.45c0,28.81,13.73,50.2,34.66,50.2S954.48,1279.92,954.48,1251.33Z"/><path class="cls-1" d="M1192.85,1204.06H1144.9v-32h130.56v32h-48v125.61h-34.66Z"/><path class="cls-1" d="M1438.65,1172.1h34.66v157.57h-34.66Z"/><path class="cls-1" d="M1690.75,1249.53l-52.67-77.43h40.52l32.86,51.09L1745,1172.1h39.39l-52.67,77,54.93,80.59h-40.52l-35.34-54-35.57,54h-39.39Z"/></g></g></svg>